<svg width="36" height="37" viewBox="0 0 36 37" fill="none" xmlns="http://www.w3.org/2000/svg">
<path id="Vector" fill-rule="evenodd" clip-rule="evenodd" d="M34.8177 21.7863C31.2729 21.7863 29.4944 26.1367 32.0008 28.6758C32.0282 28.7036 32.0541 28.7326 32.0788 28.7629C32.1033 28.7932 32.1263 28.8248 32.1479 28.8573C32.1694 28.8899 32.1893 28.9236 32.2075 28.9581C32.2257 28.9929 32.2423 29.0283 32.2571 29.0645C32.272 29.1008 32.2849 29.1377 32.2962 29.1752C32.3075 29.2127 32.317 29.2508 32.3245 29.2892C32.332 29.3278 32.3377 29.3666 32.3414 29.4056C32.3452 29.4446 32.3471 29.4838 32.3471 29.523C32.3471 29.5622 32.3452 29.6014 32.3414 29.6404C32.3377 29.6794 32.332 29.7182 32.3245 29.7568C32.317 29.7951 32.3075 29.8333 32.2962 29.8708C32.2849 29.9083 32.272 29.9452 32.2571 29.9814C32.2423 30.0177 32.2257 30.0531 32.2075 30.0878C32.1893 30.1224 32.1694 30.1558 32.1479 30.1885C32.1263 30.2211 32.1033 30.2527 32.0788 30.283C32.0541 30.3133 32.0282 30.3424 32.0008 30.3701L29.4551 32.9489C29.4279 32.9766 29.3992 33.0029 29.3693 33.0279C29.3391 33.0527 29.3082 33.076 29.2759 33.0979C29.2437 33.1197 29.2107 33.1398 29.1763 33.1583C29.1422 33.1769 29.1073 33.1937 29.0715 33.2085C29.0357 33.2236 28.9993 33.2369 28.9623 33.2481C28.9252 33.2596 28.8876 33.2691 28.8497 33.2767C28.8116 33.2844 28.7733 33.2901 28.7348 33.2941C28.6963 33.2979 28.6576 33.2999 28.6189 33.2999C28.5801 33.2999 28.5416 33.2979 28.5029 33.2941C28.4644 33.2901 28.4261 33.2844 28.3883 33.2767C28.3502 33.2691 28.3127 33.2596 28.2757 33.2481C28.2386 33.2369 28.2022 33.2236 28.1664 33.2085C28.1306 33.1937 28.0955 33.1769 28.0614 33.1583C28.0273 33.1398 27.994 33.1197 27.962 33.0979C27.9298 33.076 27.8986 33.0527 27.8687 33.0279C27.8387 33.0029 27.8101 32.9766 27.7826 32.9489C25.2763 30.41 20.982 32.2119 20.982 35.8025C20.982 35.8417 20.9801 35.8809 20.9764 35.9199C20.9724 35.9589 20.9667 35.9977 20.9592 36.0361C20.9517 36.0746 20.9422 36.1126 20.9309 36.1501C20.9199 36.1876 20.9069 36.2245 20.892 36.2607C20.8772 36.297 20.8606 36.3324 20.8424 36.3669C20.8242 36.4015 20.8043 36.4352 20.7828 36.4678C20.7612 36.5002 20.7382 36.5318 20.7137 36.5621C20.689 36.5924 20.6631 36.6215 20.6357 36.6492C20.6085 36.677 20.5798 36.7033 20.5499 36.7281C20.52 36.7529 20.4888 36.7764 20.4568 36.798C20.4245 36.8198 20.3913 36.84 20.3571 36.8584C20.323 36.8771 20.2881 36.8938 20.2523 36.9089C20.2165 36.9237 20.1801 36.9371 20.1431 36.9483C20.106 36.9597 20.0686 36.9693 20.0307 36.9769C19.9926 36.9845 19.9543 36.9905 19.9158 36.9943C19.8773 36.9981 19.8388 37 19.8001 37H16.2001C16.1614 37 16.1227 36.9981 16.0842 36.9943C16.0457 36.9905 16.0074 36.9847 15.9693 36.9769C15.9314 36.9693 15.894 36.9597 15.8567 36.9485C15.8197 36.9371 15.7833 36.9239 15.7475 36.9089C15.7117 36.8938 15.6768 36.8771 15.6426 36.8586C15.6085 36.8402 15.5753 36.8201 15.5432 36.7982C15.511 36.7764 15.4798 36.7531 15.4499 36.7281C15.42 36.7033 15.3913 36.677 15.3639 36.6492C15.3367 36.6215 15.3105 36.5924 15.2861 36.5621C15.2616 36.5318 15.2386 36.5002 15.217 36.4676C15.1955 36.435 15.1756 36.4015 15.1574 36.3669C15.139 36.3322 15.1224 36.2968 15.1078 36.2605C15.0929 36.2243 15.0799 36.1874 15.0686 36.1499C15.0573 36.1124 15.0479 36.0744 15.0404 36.0359C15.0329 35.9975 15.0272 35.9587 15.0234 35.9197C15.0197 35.8805 15.0178 35.8415 15.0178 35.8023C15.0178 32.2068 10.7264 30.4064 8.21715 32.9487C8.18973 32.9764 8.16106 33.0027 8.13114 33.0275C8.101 33.0525 8.07003 33.0758 8.03781 33.0977C8.00558 33.1195 7.97252 33.1396 7.9382 33.1581C7.90409 33.1765 7.86914 33.1932 7.83336 33.2083C7.79757 33.2233 7.76116 33.2365 7.72412 33.2479C7.68708 33.2594 7.64941 33.2689 7.61154 33.2765C7.57345 33.2842 7.53516 33.2899 7.49665 33.2937C7.45815 33.2975 7.41943 33.2994 7.38072 33.2994C7.34201 33.2994 7.3035 33.2975 7.26479 33.2937C7.22628 33.2899 7.18799 33.2842 7.15011 33.2765C7.11203 33.2689 7.07457 33.2594 7.03753 33.2479C7.00049 33.2365 6.96408 33.2233 6.92829 33.2083C6.89251 33.1932 6.85756 33.1765 6.82324 33.1581C6.78913 33.1396 6.75607 33.1195 6.72384 33.0977C6.69162 33.0758 6.66044 33.0525 6.63051 33.0275C6.60059 33.0027 6.57192 32.9764 6.5445 32.9487L3.99923 30.3699C3.97182 30.3421 3.94587 30.3131 3.92139 30.2828C3.89669 30.2523 3.87367 30.2209 3.85212 30.1883C3.83078 30.1556 3.8109 30.1219 3.79248 30.0874C3.77427 30.0528 3.75774 30.0174 3.74289 29.9812C3.72803 29.945 3.71505 29.9081 3.70375 29.8704C3.69266 29.8328 3.68324 29.7949 3.67571 29.7563C3.66797 29.718 3.66232 29.6792 3.65855 29.6402C3.65479 29.601 3.6529 29.562 3.6529 29.5228C3.6529 29.4833 3.65479 29.4443 3.65855 29.4051C3.66232 29.3661 3.66797 29.3274 3.67571 29.289C3.68324 29.2504 3.69266 29.2125 3.70375 29.175C3.71505 29.1372 3.72803 29.1004 3.74289 29.0641C3.75774 29.0279 3.77427 28.9925 3.79248 28.9579C3.8109 28.9234 3.83078 28.8897 3.85212 28.857C3.87367 28.8244 3.89669 28.793 3.92139 28.7627C3.94587 28.7322 3.97182 28.7032 3.99923 28.6754C6.50558 26.1365 4.72705 21.7861 1.18234 21.7861C1.14362 21.7861 1.10512 21.7842 1.06662 21.7802C1.02811 21.7764 0.989816 21.7706 0.95173 21.763C0.913853 21.7554 0.876395 21.7458 0.839146 21.7344C0.802107 21.7232 0.765695 21.71 0.729911 21.695C0.694336 21.6799 0.65918 21.6632 0.62507 21.6447C0.59096 21.6261 0.557896 21.606 0.52567 21.5843C0.493443 21.5625 0.462263 21.5392 0.432338 21.5142C0.402414 21.4894 0.373744 21.4631 0.34654 21.4353C0.319127 21.4076 0.293178 21.3785 0.268485 21.3482C0.244001 21.3179 0.220982 21.2866 0.199428 21.2539C0.177874 21.2213 0.157994 21.1878 0.139788 21.153C0.121373 21.1185 0.104841 21.0831 0.0901925 21.0468C0.0753348 21.0106 0.0623605 20.9737 0.0510603 20.9362C0.0397601 20.8987 0.0303432 20.8608 0.0228097 20.8222C0.0152762 20.7838 0.00962614 20.745 0.00585938 20.706C0.00188336 20.667 0 20.6278 0 20.5886V19.1451C0 19.12 0.00251115 19.0955 0.00732422 19.0709C0.0121372 19.0465 0.0192523 19.0228 0.0288783 18.9997C0.0382952 18.9768 0.0498047 18.9549 0.0634068 18.9342C0.0772182 18.9134 0.0927037 18.8943 0.110073 18.8765C0.127441 18.8589 0.146484 18.8432 0.166783 18.8295C0.187291 18.8155 0.208845 18.8038 0.231655 18.7943C0.254464 18.7847 0.277902 18.7775 0.301967 18.7725C0.326032 18.7676 0.350516 18.7653 0.375 18.765H9.35156C9.35156 18.9085 9.35491 19.0518 9.36182 19.1951C9.36893 19.3381 9.37919 19.4812 9.39321 19.6238C9.40702 19.7665 9.42439 19.9089 9.4451 20.0507C9.46582 20.1925 9.4901 20.3336 9.51772 20.4744C9.54534 20.6149 9.57631 20.7548 9.61063 20.894C9.64516 21.0331 9.68283 21.1713 9.72384 21.3084C9.76507 21.4455 9.80943 21.5818 9.85714 21.7168C9.90465 21.8518 9.95571 21.9856 10.0099 22.118C10.0639 22.2505 10.1212 22.3815 10.1819 22.5112C10.2424 22.6407 10.306 22.7687 10.3728 22.8952C10.4395 23.0215 10.5092 23.1464 10.582 23.2693C10.6546 23.3924 10.7304 23.5135 10.8091 23.6326C10.8878 23.7519 10.9692 23.8691 11.0535 23.9842C11.1378 24.0995 11.2249 24.2125 11.3147 24.3233C11.4044 24.4342 11.4969 24.5427 11.5919 24.6489C11.6869 24.755 11.7845 24.8589 11.8847 24.9604C11.9847 25.0617 12.0871 25.1605 12.1921 25.2569C12.2969 25.3532 12.4041 25.4468 12.5135 25.5378C12.623 25.6287 12.7345 25.7169 12.8481 25.8023C12.9618 25.8877 13.0775 25.9703 13.1951 26.0498C13.3129 26.1295 13.4324 26.2062 13.5538 26.28C13.6752 26.3538 13.7984 26.4243 13.9231 26.4919C14.0481 26.5596 14.1745 26.624 14.3023 26.6852C14.4302 26.7467 14.5597 26.8048 14.6903 26.8597C14.8211 26.9144 14.9531 26.9661 15.0864 27.0144C15.2197 27.0627 15.3541 27.1076 15.4895 27.1492C15.6249 27.1909 15.7613 27.2291 15.8986 27.2638C16.0359 27.2988 16.174 27.3302 16.3127 27.3582C16.4517 27.3861 16.591 27.4105 16.731 27.4317C16.871 27.4527 17.0114 27.4703 17.1523 27.4843C17.2931 27.4983 17.4344 27.5089 17.5756 27.5159C17.7171 27.5231 17.8585 27.5265 18 27.5265C18.1417 27.5265 18.2831 27.5231 18.4244 27.5159C18.5658 27.5089 18.7069 27.4983 18.8477 27.4843C18.9886 27.4703 19.129 27.4527 19.269 27.4317C19.409 27.4105 19.5485 27.3861 19.6873 27.3582C19.826 27.3302 19.9641 27.2988 20.1014 27.2638C20.2387 27.2291 20.3751 27.1909 20.5105 27.1492C20.6459 27.1076 20.7805 27.0627 20.9136 27.0144C21.0469 26.9661 21.1789 26.9144 21.3097 26.8597C21.4405 26.8048 21.5698 26.7467 21.6977 26.6852C21.8258 26.624 21.9521 26.5596 22.0769 26.4919C22.2018 26.4243 22.3248 26.3538 22.4462 26.28C22.5676 26.2062 22.6873 26.1295 22.8049 26.0498C22.9225 25.9703 23.0382 25.8877 23.1521 25.8023C23.2657 25.7169 23.3772 25.6287 23.4867 25.5378C23.5961 25.4468 23.7033 25.3532 23.8081 25.2569C23.9129 25.1605 24.0155 25.0617 24.1155 24.9604C24.2155 24.8589 24.3131 24.755 24.4083 24.6489C24.5033 24.5427 24.5958 24.4342 24.6855 24.3233C24.7753 24.2125 24.8624 24.0995 24.9467 23.9842C25.0308 23.8691 25.1124 23.7519 25.1911 23.6326C25.2696 23.5135 25.3454 23.3924 25.4182 23.2693C25.491 23.1464 25.5607 23.0215 25.6274 22.8952C25.6942 22.7687 25.7578 22.6407 25.8183 22.5112C25.8788 22.3815 25.9361 22.2505 25.9903 22.118C26.0445 21.9856 26.0954 21.8518 26.1431 21.7168C26.1908 21.5818 26.2351 21.4455 26.2762 21.3084C26.3172 21.1713 26.3551 21.0331 26.3894 20.894C26.4239 20.7548 26.4549 20.6149 26.4825 20.4744C26.5101 20.3336 26.5342 20.1925 26.5549 20.0507C26.5758 19.9089 26.593 19.7665 26.607 19.6238C26.6208 19.4812 26.6313 19.3381 26.6382 19.1951C26.6451 19.0518 26.6486 18.9085 26.6486 18.765H35.625C35.6497 18.7653 35.674 18.7676 35.6982 18.7725C35.7223 18.7775 35.7457 18.7847 35.7683 18.7943C35.7912 18.8038 35.8127 18.8155 35.8332 18.8295C35.8537 18.8432 35.8726 18.8589 35.8899 18.8765C35.9073 18.8943 35.923 18.9134 35.9366 18.9342C35.9502 18.9549 35.9619 18.9768 35.9713 18.9997C35.9807 19.0228 35.9879 19.0465 35.9927 19.0709C35.9975 19.0955 36 19.12 36 19.1451V20.5886C36 20.6278 35.9981 20.667 35.9944 20.706C35.9906 20.745 35.9849 20.7838 35.9774 20.8222C35.9699 20.8608 35.9604 20.8987 35.9492 20.9362C35.9379 20.9739 35.9249 21.0108 35.91 21.0471C35.8952 21.0833 35.8786 21.1187 35.8604 21.1532C35.8422 21.1878 35.8223 21.2215 35.8008 21.2541C35.7792 21.2868 35.7562 21.3181 35.7317 21.3484C35.707 21.3788 35.6811 21.4078 35.6537 21.4356C35.6265 21.4633 35.5978 21.4896 35.5679 21.5144C35.5377 21.5394 35.5068 21.5627 35.4745 21.5846C35.4423 21.6064 35.4092 21.6265 35.3751 21.645C35.3408 21.6634 35.3059 21.6801 35.2701 21.6952C35.2343 21.7102 35.1979 21.7234 35.1609 21.7348C35.1238 21.7463 35.0864 21.7556 35.0483 21.7634C35.0104 21.7711 34.9721 21.7768 34.9336 21.7806C34.8951 21.7844 34.8564 21.7863 34.8177 21.7863ZM3.96366 17.7015C4.35624 17.4476 4.76932 17.2337 5.2025 17.0599C5.63588 16.8864 6.0814 16.756 6.53948 16.6689V14.4714C5.88972 14.3354 4.97942 14.0967 4.36042 13.5577C3.5579 12.8592 3.14418 11.6566 3.1603 10.6034C3.16071 10.5691 3.16427 10.5352 3.17118 10.5017C3.17808 10.4682 3.18813 10.4356 3.20131 10.404C3.21449 10.3724 3.2304 10.3423 3.24923 10.3139C3.26807 10.2855 3.28962 10.2592 3.31348 10.2349C3.33733 10.2107 3.36349 10.1891 3.39153 10.17C3.41957 10.1507 3.44908 10.1346 3.48026 10.1213C3.51144 10.1079 3.54367 10.0979 3.57673 10.0909C3.60979 10.084 3.64328 10.0801 3.67718 10.0797C4.67683 10.0642 5.84745 10.4873 6.53969 11.2342V9.77218C5.88993 9.63611 4.97963 9.39725 4.36042 8.85848C3.5579 8.15949 3.14418 6.95733 3.16051 5.90396C3.16092 5.86984 3.16448 5.83593 3.17139 5.80223C3.17829 5.76874 3.18834 5.73631 3.20152 5.70473C3.21449 5.67315 3.23061 5.64305 3.24944 5.61465C3.26828 5.58625 3.28962 5.55997 3.31369 5.5356C3.33754 5.51144 3.36349 5.48982 3.39153 5.47053C3.41978 5.45146 3.44929 5.43535 3.48047 5.422C3.51165 5.40864 3.54388 5.39868 3.57694 5.39169C3.61 5.38469 3.64349 5.38088 3.67739 5.38045C4.67704 5.36477 5.84766 5.78803 6.53969 6.53492V5.50508C6.13225 4.85928 5.70138 4.23489 5.65513 3.43967C5.60282 2.54377 6.06948 1.52834 6.69747 0.910943C6.72175 0.886993 6.74791 0.865586 6.77616 0.846935C6.80441 0.828072 6.83433 0.812176 6.86551 0.799247C6.8969 0.786319 6.92913 0.776357 6.9624 0.769787C6.99547 0.763216 7.02916 0.759825 7.06285 0.759825C7.09675 0.759825 7.13023 0.763005 7.1635 0.769575C7.19657 0.776145 7.229 0.785895 7.26018 0.798611C7.29157 0.81154 7.3215 0.827436 7.34975 0.846087C7.37821 0.864739 7.40437 0.886145 7.42864 0.910095C8.06794 1.53788 8.54046 2.53339 8.47203 3.44814C8.41218 4.25036 7.90283 5.03816 7.58956 5.50911V6.53641C8.2816 5.78866 9.45306 5.36477 10.4535 5.38045C10.4872 5.38088 10.5207 5.38448 10.5538 5.39148C10.5871 5.39847 10.6191 5.40864 10.6503 5.422C10.6814 5.43535 10.7111 5.45146 10.7392 5.47053C10.7672 5.48982 10.7932 5.51144 10.817 5.5356C10.8411 5.55976 10.8624 5.58625 10.8813 5.61465C10.9001 5.64305 10.9162 5.67315 10.9292 5.70473C10.9424 5.73631 10.9524 5.76874 10.9593 5.80223C10.9662 5.83593 10.9698 5.86984 10.9702 5.90396C10.9863 6.95733 10.5728 8.15991 9.7703 8.85848C9.15109 9.39789 8.23954 9.63632 7.58977 9.7726V11.2357C8.28181 10.4879 9.45306 10.0642 10.4535 10.0797C10.4874 10.0801 10.5209 10.084 10.554 10.0909C10.5871 10.0979 10.6193 10.1079 10.6505 10.1213C10.6816 10.1346 10.7111 10.1507 10.7392 10.17C10.7672 10.1891 10.7934 10.2107 10.8172 10.2349C10.8411 10.2592 10.8624 10.2855 10.8815 10.3139C10.9003 10.3423 10.9162 10.3724 10.9294 10.404C10.9426 10.4356 10.9526 10.4682 10.9593 10.5017C10.9662 10.5352 10.97 10.5691 10.9704 10.6034C10.9863 11.6566 10.5728 12.8592 9.7703 13.5577C9.15109 14.0971 8.23954 14.3356 7.58977 14.4719V16.5619C8.95626 16.5267 10.2485 16.8804 11.5273 17.2267C13.0691 16.3024 15.2323 15.7567 17.4747 15.6825V13.7116C16.8252 13.5755 15.9143 13.3367 15.2957 12.7979C14.4932 12.0993 14.0795 10.8968 14.0958 9.84361C14.0962 9.80927 14.0997 9.77536 14.1067 9.74187C14.1136 9.70817 14.1236 9.67575 14.1366 9.64417C14.1498 9.61259 14.1659 9.58249 14.1847 9.55409C14.2035 9.52569 14.2249 9.49941 14.249 9.47503C14.2728 9.45087 14.2988 9.42925 14.3268 9.41018C14.3548 9.39089 14.3846 9.37478 14.4157 9.36143C14.4469 9.34829 14.4789 9.33812 14.5122 9.33112C14.5453 9.32413 14.5788 9.32031 14.6124 9.3201C15.6123 9.3042 16.7827 9.72746 17.475 10.4744V9.01236C16.8252 8.87629 15.9145 8.63742 15.2959 8.09866C14.4934 7.39966 14.0797 6.1975 14.0958 5.14413C14.0962 5.11001 14.1 5.0761 14.1069 5.04261C14.1138 5.00891 14.1236 4.97649 14.1368 4.94491C14.15 4.91333 14.1659 4.88323 14.1849 4.85483C14.2038 4.82643 14.2251 4.80015 14.249 4.77577C14.273 4.75161 14.299 4.72999 14.327 4.71071C14.3551 4.69163 14.3848 4.67552 14.4157 4.66217C14.4469 4.64882 14.4791 4.63864 14.5122 4.63165C14.5455 4.62487 14.5788 4.62105 14.6127 4.62063C15.6125 4.60494 16.7829 5.0282 17.4752 5.7751V4.74525C17.0677 4.09945 16.6367 3.47506 16.5906 2.68005C16.5375 1.78395 17.0043 0.768515 17.6325 0.151329C17.6568 0.127379 17.683 0.105973 17.7112 0.0871097C17.7395 0.0682465 17.7694 0.0523506 17.8006 0.0394219C17.832 0.0264932 17.8642 0.0167437 17.8975 0.00996145C17.9305 0.00339112 17.964 0 17.9979 0C18.0318 0 18.0653 0.00317923 18.0984 0.0097495C18.1316 0.0163198 18.1639 0.0260693 18.1952 0.0387861C18.2266 0.0517147 18.2563 0.0676107 18.2848 0.0862619C18.3131 0.104913 18.3394 0.12632 18.3637 0.15027C19.003 0.778053 19.4753 1.77356 19.4071 2.68832C19.347 3.49075 18.8379 4.27855 18.5246 4.74928V5.77658C19.2167 5.02884 20.3881 4.60494 21.3884 4.62063C21.4223 4.62105 21.4558 4.62487 21.4888 4.63165C21.5219 4.63864 21.5541 4.64882 21.5853 4.66217C21.6165 4.67552 21.646 4.69163 21.6742 4.71071C21.7023 4.72999 21.7282 4.75161 21.7521 4.77577C21.7759 4.80015 21.7975 4.82643 21.8163 4.85483C21.8352 4.88323 21.8513 4.91333 21.8643 4.94491C21.8774 4.97649 21.8875 5.00891 21.8944 5.04261C21.9013 5.0761 21.9049 5.11001 21.9053 5.14413C21.9214 6.1975 21.5079 7.40008 20.7054 8.09866C20.0861 8.63827 19.1746 8.8765 18.5248 9.01278V10.4758C19.2169 9.7281 20.3881 9.3042 21.3886 9.3201C21.4225 9.32031 21.456 9.32413 21.489 9.33112C21.5221 9.33812 21.5543 9.34829 21.5855 9.36143C21.6167 9.37478 21.6462 9.39089 21.6742 9.41018C21.7023 9.42925 21.7284 9.45087 21.7523 9.47503C21.7762 9.49941 21.7975 9.52569 21.8165 9.55409C21.8354 9.58249 21.8513 9.61259 21.8645 9.64417C21.8777 9.67575 21.8877 9.70817 21.8946 9.74187C21.9013 9.77536 21.9051 9.80927 21.9055 9.84361C21.9214 10.8968 21.5079 12.0996 20.7054 12.7979C20.0864 13.3375 19.1748 13.5758 18.525 13.712V15.6825C20.7229 15.7571 22.5873 16.3031 24.1281 17.2267C25.4741 16.8622 26.8939 16.4898 28.4098 16.5708V14.4714C27.7603 14.3354 26.8495 14.0967 26.2307 13.5577C25.4282 12.8592 25.0145 11.6566 25.0308 10.6034C25.0312 10.5691 25.0348 10.5352 25.0417 10.5017C25.0486 10.4682 25.0587 10.4356 25.0716 10.404C25.0848 10.3724 25.1009 10.3423 25.1198 10.3139C25.1386 10.2855 25.1599 10.2592 25.184 10.2349C25.2079 10.2107 25.2338 10.1891 25.2619 10.17C25.2899 10.1507 25.3196 10.1346 25.3508 10.1213C25.382 10.1079 25.414 10.0979 25.4473 10.0909C25.4803 10.084 25.5138 10.0801 25.5475 10.0797C26.5474 10.0642 27.7178 10.4873 28.41 11.2342V9.77218C27.7603 9.63611 26.8497 9.39725 26.231 8.85848C25.4284 8.15949 25.0147 6.95733 25.0308 5.90396C25.0312 5.86984 25.035 5.83593 25.0419 5.80223C25.0488 5.76874 25.0587 5.73631 25.0718 5.70473C25.085 5.67315 25.1009 5.64305 25.12 5.61465C25.1388 5.58625 25.1602 5.55997 25.184 5.5356C25.2081 5.51144 25.234 5.48982 25.2621 5.47053C25.2901 5.45146 25.3198 5.43535 25.351 5.422C25.3822 5.40864 25.4142 5.39868 25.4473 5.39169C25.4805 5.38469 25.514 5.38088 25.5477 5.38045C26.5476 5.36477 27.718 5.78803 28.4102 6.53492V5.50508C28.0028 4.85928 27.5717 4.23489 27.5257 3.43967C27.4725 2.54377 27.9392 1.52834 28.5676 0.910943C28.5917 0.886993 28.618 0.865586 28.6463 0.846935C28.6745 0.828072 28.7042 0.812176 28.7356 0.799247C28.767 0.786319 28.7992 0.776357 28.8323 0.769787C28.8656 0.763216 28.8991 0.759825 28.933 0.759825C28.9667 0.759825 29.0001 0.763005 29.0334 0.769575C29.0667 0.776145 29.0989 0.785895 29.1303 0.798611C29.1617 0.81154 29.1914 0.827436 29.2199 0.846087C29.2481 0.864739 29.2745 0.886145 29.2985 0.910095C29.9378 1.53788 30.4104 2.53339 30.3421 3.44814C30.2821 4.25036 29.7729 5.03816 29.4597 5.50911V6.53641C30.1517 5.78866 31.3232 5.36477 32.3235 5.38045C32.3574 5.38088 32.3908 5.38448 32.4239 5.39148C32.457 5.39847 32.4892 5.40864 32.5204 5.422C32.5515 5.43535 32.5811 5.45146 32.6091 5.47053C32.6371 5.48982 32.6633 5.51144 32.6872 5.5356C32.711 5.55976 32.7324 5.58625 32.7514 5.61465C32.7702 5.64305 32.7861 5.67315 32.7993 5.70473C32.8125 5.73631 32.8225 5.76874 32.8292 5.80223C32.8361 5.83593 32.8399 5.86984 32.8403 5.90396C32.8564 6.95733 32.4427 8.15991 31.6402 8.85848C31.021 9.39789 30.1094 9.63632 29.4597 9.7726V11.2357C30.1519 10.4879 31.3232 10.0642 32.3235 10.0797C32.3574 10.0801 32.3908 10.084 32.4239 10.0909C32.457 10.0979 32.4892 10.1079 32.5204 10.1213C32.5515 10.1346 32.5813 10.1507 32.6093 10.17C32.6373 10.1891 32.6633 10.2107 32.6872 10.2349C32.7112 10.2592 32.7326 10.2855 32.7514 10.3139C32.7702 10.3423 32.7863 10.3724 32.7993 10.404C32.8125 10.4356 32.8225 10.4682 32.8295 10.5017C32.8364 10.5352 32.8399 10.5691 32.8403 10.6034C32.8564 11.6566 32.4429 12.8592 31.6404 13.5577C31.0212 14.0971 30.1097 14.3356 29.4599 14.4719V16.702C29.9039 16.7931 30.3369 16.9226 30.7586 17.0905C31.1802 17.2583 31.5843 17.462 31.9708 17.7015H3.96366ZM11.8167 21.4875H24.1833C24.2178 21.4875 24.252 21.4841 24.2859 21.4771C24.3195 21.4703 24.3524 21.4604 24.3844 21.447C24.4162 21.4336 24.4464 21.4171 24.475 21.3978C24.5037 21.3783 24.5303 21.3563 24.5545 21.3317C24.579 21.3069 24.6008 21.28 24.6198 21.2509C24.6391 21.2219 24.6552 21.1914 24.6684 21.1592C24.6816 21.1267 24.6916 21.0937 24.6983 21.0594C24.705 21.025 24.7084 20.9905 24.7084 20.9555C24.7084 20.9207 24.705 20.886 24.6983 20.8519C24.6916 20.8175 24.6816 20.7842 24.6684 20.752C24.6552 20.7198 24.6391 20.6891 24.6198 20.66C24.6008 20.631 24.579 20.6041 24.5545 20.5795C24.5303 20.5547 24.5037 20.5327 24.475 20.5134C24.4464 20.4939 24.4162 20.4776 24.3844 20.4642C24.3524 20.4509 24.3195 20.4407 24.2859 20.4339C24.252 20.4271 24.2178 20.4237 24.1833 20.4237H11.8167C11.7822 20.4237 11.748 20.4271 11.7141 20.4339C11.6805 20.4407 11.6476 20.4509 11.6158 20.4642C11.584 20.4776 11.5536 20.4939 11.525 20.5134C11.4963 20.5327 11.4697 20.5547 11.4455 20.5795C11.421 20.6041 11.3992 20.631 11.3802 20.66C11.3609 20.6891 11.3448 20.7198 11.3316 20.752C11.3184 20.7842 11.3084 20.8175 11.3017 20.8519C11.295 20.886 11.2916 20.9207 11.2916 20.9555C11.2916 20.9905 11.295 21.025 11.3017 21.0594C11.3084 21.0937 11.3184 21.1267 11.3316 21.1592C11.3448 21.1914 11.3609 21.2219 11.3802 21.2509C11.3992 21.28 11.421 21.3069 11.4455 21.3317C11.4697 21.3563 11.4963 21.3783 11.525 21.3978C11.5536 21.4171 11.584 21.4336 11.6158 21.447C11.6476 21.4604 11.6805 21.4703 11.7141 21.4771C11.748 21.4841 11.7822 21.4875 11.8167 21.4875ZM17.0939 25.868H18.9063C18.9406 25.868 18.975 25.8646 19.0086 25.8578C19.0426 25.851 19.0754 25.8408 19.1072 25.8275C19.139 25.8141 19.1694 25.7978 19.198 25.7783C19.2267 25.759 19.2531 25.737 19.2776 25.7122C19.3018 25.6876 19.3236 25.6607 19.3428 25.6317C19.3619 25.6026 19.3782 25.5719 19.3914 25.5397C19.4046 25.5075 19.4144 25.4742 19.4211 25.4398C19.4278 25.4057 19.4314 25.3712 19.4314 25.3362C19.4314 25.3012 19.4278 25.2667 19.4211 25.2323C19.4144 25.1982 19.4046 25.165 19.3914 25.1327C19.3782 25.1003 19.3619 25.0698 19.3428 25.0408C19.3236 25.0117 19.3018 24.9848 19.2776 24.9602C19.2531 24.9354 19.2267 24.9134 19.198 24.8939C19.1694 24.8746 19.139 24.8583 19.1072 24.8449C19.0754 24.8313 19.0426 24.8214 19.0086 24.8146C18.975 24.8078 18.9406 24.8044 18.9063 24.8044H17.0939C17.0594 24.8044 17.0253 24.8078 16.9914 24.8146C16.9577 24.8214 16.9248 24.8313 16.893 24.8449C16.861 24.8583 16.8308 24.8746 16.8022 24.8939C16.7735 24.9134 16.7469 24.9354 16.7227 24.9602C16.6982 24.9848 16.6764 25.0117 16.6574 25.0408C16.6381 25.0698 16.622 25.1003 16.6088 25.1327C16.5956 25.165 16.5856 25.1982 16.5789 25.2323C16.5722 25.2667 16.5688 25.3012 16.5688 25.3362C16.5688 25.3712 16.5722 25.4057 16.5789 25.4398C16.5856 25.4742 16.5956 25.5075 16.6088 25.5397C16.622 25.5719 16.6381 25.6026 16.6574 25.6317C16.6764 25.6607 16.6982 25.6876 16.7227 25.7122C16.7469 25.737 16.7735 25.759 16.8022 25.7783C16.8308 25.7978 16.861 25.8141 16.893 25.8275C16.9248 25.8408 16.9577 25.851 16.9914 25.8578C17.0253 25.8646 17.0594 25.868 17.0939 25.868ZM13.0817 23.6777H22.9183C22.9528 23.6777 22.987 23.6743 23.0206 23.6676C23.0545 23.6608 23.0874 23.6506 23.1192 23.6372C23.151 23.6239 23.1814 23.6076 23.21 23.5881C23.2387 23.5688 23.2653 23.5467 23.2896 23.5219C23.3138 23.4972 23.3356 23.4704 23.3548 23.4414C23.3739 23.4124 23.3902 23.3816 23.4034 23.3494C23.4166 23.3172 23.4264 23.2839 23.4333 23.2496C23.44 23.2155 23.4434 23.1807 23.4434 23.146C23.4434 23.111 23.44 23.0764 23.4333 23.0421C23.4264 23.0078 23.4166 22.9747 23.4034 22.9423C23.3902 22.9101 23.3739 22.8793 23.3548 22.8503C23.3356 22.8213 23.3138 22.7945 23.2896 22.7698C23.2653 22.7452 23.2387 22.7231 23.21 22.7036C23.1814 22.6843 23.151 22.6678 23.1192 22.6545C23.0874 22.6411 23.0545 22.6311 23.0206 22.6241C22.987 22.6174 22.9528 22.614 22.9183 22.614H13.0817C13.0472 22.614 13.013 22.6174 12.9794 22.6241C12.9455 22.6311 12.9126 22.6411 12.8808 22.6545C12.849 22.6678 12.8186 22.6843 12.79 22.7036C12.7613 22.7231 12.7349 22.7452 12.7104 22.7698C12.6862 22.7945 12.6644 22.8213 12.6452 22.8503C12.6261 22.8793 12.6098 22.9101 12.5966 22.9423C12.5834 22.9747 12.5736 23.0078 12.5667 23.0421C12.56 23.0764 12.5566 23.111 12.5566 23.146C12.5566 23.1807 12.56 23.2155 12.5667 23.2496C12.5736 23.2839 12.5834 23.3172 12.5966 23.3494C12.6098 23.3816 12.6261 23.4124 12.6452 23.4414C12.6644 23.4704 12.6862 23.4972 12.7104 23.5219C12.7349 23.5467 12.7613 23.5688 12.79 23.5881C12.8186 23.6076 12.849 23.6239 12.8808 23.6372C12.9126 23.6506 12.9455 23.6608 12.9794 23.6676C13.013 23.6743 13.0472 23.6777 13.0817 23.6777Z" fill="#737373"/>
</svg>
