<svg width="26" height="31" viewBox="0 0 26 31" fill="none" xmlns="http://www.w3.org/2000/svg">
<g id="Agrowiki">
<path id="Agrowiki_2" d="M25.2387 3.0119C25.232 2.99946 25.2321 2.98125 25.2263 2.96963C25.2147 2.94558 25.1964 2.92729 25.184 2.90323C25.1665 2.87335 25.1483 2.83768 25.1183 2.81355C25.1116 2.8069 25.1117 2.8011 25.1058 2.80108C25.0875 2.78941 25.0699 2.78271 25.0516 2.77105C25.0216 2.74691 24.9908 2.72857 24.9607 2.71023C24.9248 2.69849 24.8948 2.69257 24.858 2.68C24.8397 2.67413 24.8221 2.66826 24.8038 2.66156L4.41644 0.824179C4.33791 0.811431 4.26514 0.823543 4.1856 0.85301C2.09238 1.66045 0.826642 2.88528 0.316206 4.59922C0.285887 4.6529 0.267246 4.71243 0.261116 4.77863L0.166659 27.2496C0.162368 28.2703 0.934595 29.1072 1.96409 29.1959L20.9769 30.8893L21.0196 30.8895C21.0614 30.8896 21.104 30.884 21.1467 30.8726C21.1709 30.8727 21.1952 30.8604 21.2195 30.8547C21.2798 30.8309 21.3343 30.7948 21.383 30.7469L25.0215 27.234C25.1189 27.1384 25.1679 27.007 25.1685 26.8745L25.2682 3.15607C25.2625 3.10803 25.2502 3.05997 25.2387 3.0119ZM4.42753 28.414L3.41642 28.3254L3.51186 5.62012L4.52292 5.7204L4.42753 28.414ZM18.8033 20.3916L15.819 16.8326L13.157 18.6998L13.2079 6.60294L14.2198 6.70322L17.8537 7.07281L18.8647 7.17888L18.8092 20.3916L18.8033 20.3916ZM20.9286 6.38374L18.8631 6.17141L13.2121 5.59549L1.46224 4.40619C1.95182 3.27992 2.94343 2.43804 4.45486 1.82601L23.6732 3.55748L20.9286 6.38374ZM22.3382 28.4173L21.5291 29.1995L21.6219 7.11266L22.4313 6.27581L22.3382 28.4173ZM24.1512 26.6608L23.3479 27.4373L23.4406 5.39263C23.4408 5.34461 23.4293 5.30234 23.4169 5.26007L24.2506 4.40595L24.157 26.6609L24.1512 26.6608Z" fill="#666666"/>
</g>
</svg>
