<svg width="26" height="32" viewBox="0 0 26 32" fill="none" xmlns="http://www.w3.org/2000/svg">
<g id="Agrowiki">
<path id="Agrowiki_2" d="M25.089 3.10447C25.0824 3.09205 25.0824 3.07384 25.0765 3.06225C25.0648 3.03824 25.0464 3.02003 25.0339 2.99603C25.0163 2.96622 24.9979 2.93063 24.9678 2.90662C24.9612 2.9 24.9612 2.8942 24.9553 2.8942C24.9369 2.88261 24.9194 2.87599 24.901 2.8644C24.8709 2.8404 24.8399 2.82218 24.8098 2.80397C24.7739 2.79238 24.7438 2.78659 24.707 2.77417C24.6886 2.76838 24.6711 2.76258 24.6527 2.75596L4.2578 1.00429C4.17923 0.991875 4.1065 1.00429 4.02709 1.03409C1.93728 1.85032 0.676702 3.08046 0.173476 4.79653C0.143382 4.85034 0.124992 4.90995 0.119141 4.97617L0.119141 27.4473C0.119141 28.468 0.894879 29.3017 1.92474 29.3861L20.9445 30.9995L20.9872 30.9995C21.029 30.9995 21.0716 30.9937 21.1142 30.9821C21.1385 30.9821 21.1627 30.9697 21.187 30.9639C21.2471 30.9399 21.3015 30.9035 21.35 30.8555L24.9737 27.3273C25.0707 27.2313 25.1191 27.0997 25.1191 26.9672L25.1191 3.24851C25.1133 3.2005 25.1007 3.15248 25.089 3.10447ZM4.38486 28.5939L3.3734 28.5094L3.3734 5.80399L4.38486 5.90002L4.38486 28.5939ZM18.7268 20.511L15.7275 16.9647L13.0735 18.843L13.0735 6.74605L14.0858 6.84208L17.7212 7.19638L18.7327 7.2982L18.7327 20.511L18.7268 20.511ZM20.7932 6.49439L18.7268 6.29075L13.0735 5.73859L1.31869 4.59868C1.80353 3.47037 2.79159 2.62433 4.30044 2.00595L23.5259 3.65663L20.7932 6.49439ZM22.2954 28.5218L21.4896 29.3074L21.4896 7.22039L22.2954 6.38015L22.2954 28.5218ZM24.101 26.7578L23.301 27.5376L23.301 5.49273C23.301 5.44472 23.2893 5.4025 23.2768 5.36028L24.1068 4.50266L24.1068 26.7578L24.101 26.7578Z" fill="#35B276"/>
</g>
</svg>
