<svg width="52" height="33" viewBox="0 0 52 33" fill="none" xmlns="http://www.w3.org/2000/svg">
<g id="Circles">
<g id="Circles_2">
<path id="Vector" d="M40.8312 17.1292C47.2634 18.6832 51.4548 21.217 51.4548 24.08C51.4548 28.805 40.0374 32.6344 25.9543 32.6344C11.8722 32.6344 0.454773 28.805 0.454773 24.08C0.454773 21.5834 3.64609 19.3372 8.73043 17.7708C8.85344 17.931 9.03044 18.046 9.24019 18.0788C9.7703 18.1655 10.2314 17.754 10.2314 17.2354L10.2314 19.4859C6.03648 20.6497 3.43281 22.2781 3.43281 24.08C3.43281 27.6253 13.5174 30.4953 25.9543 30.4953C30.5572 30.4953 34.8344 30.1051 38.4001 29.4263C44.4748 28.2784 48.4812 26.3128 48.4812 24.08C48.4812 22.1586 45.52 20.4355 40.8312 19.2638L40.8312 17.1292Z" fill="#35B276"/>
<path id="Vector_2" d="M40.8312 17.1292L40.8312 14.8131C40.8312 14.0644 40.6171 13.3166 40.1524 12.7325C40.0993 12.6625 40.0409 12.5962 39.9799 12.5307C39.848 12.3864 39.7082 12.2634 39.5763 12.1608C39.1568 11.836 38.5851 11.8023 38.1169 12.0492C37.2487 12.5015 36.4505 12.5307 36.1549 12.5307C35.3194 12.5307 34.6495 12.2838 34.1928 12.0457C33.876 11.8767 33.514 11.8395 33.1813 11.9386L33.1813 10.5359C33.1813 9.78718 32.9671 9.03846 32.5025 8.45436C32.4494 8.38445 32.391 8.31896 32.3299 8.25347C32.198 8.10921 32.0582 7.9862 31.9263 7.88265C31.5068 7.55786 30.9351 7.52511 30.467 7.77203C29.5988 8.22426 28.8005 8.25347 28.5049 8.25347C27.6695 8.25347 26.9995 8.00655 26.5429 7.7676C26.0738 7.52069 25.5065 7.55786 25.087 7.88265C24.9516 7.9862 24.8153 8.10921 24.6799 8.25347C24.618 8.31896 24.5605 8.38445 24.5074 8.45436C24.0463 9.03846 23.8321 9.78718 23.8321 10.5359L23.8321 10.6554C23.4993 10.5607 23.133 10.5978 22.817 10.766C21.9488 11.2182 21.1505 11.2474 20.855 11.2474C20.0195 11.2474 19.3496 11.0005 18.8929 10.7624C18.5513 10.581 18.161 10.5527 17.8114 10.6757C17.7167 10.1783 17.515 9.7093 17.2026 9.31016C17.1495 9.24024 17.0919 9.17475 17.03 9.10838C16.8981 8.96501 16.7583 8.84111 16.6264 8.73845C16.2069 8.41365 15.6352 8.38091 15.167 8.62782C14.2989 9.08006 13.5006 9.10838 13.205 9.10838C12.3696 9.10838 11.6996 8.86235 11.2429 8.6234C10.7739 8.37648 10.2066 8.41365 9.78712 8.73845C9.65171 8.84111 9.51542 8.96501 9.38002 9.10838C9.31807 9.17475 9.26054 9.24024 9.20744 9.31016C8.74636 9.89426 8.53219 10.643 8.53219 11.3917L8.53219 17.1902C8.53219 17.4 8.60653 17.6062 8.73043 17.7708C3.64609 19.3372 0.454773 21.5834 0.454773 24.08C0.454773 28.805 11.8722 32.6344 25.9543 32.6344C40.0374 32.6344 51.4548 28.805 51.4548 24.08C51.4548 21.217 47.2634 18.6832 40.8312 17.1292ZM38.4001 29.4263C34.8344 30.1051 30.5572 30.4953 25.9543 30.4953C13.5174 30.4953 3.43281 27.6253 3.43281 24.08C3.43281 22.2781 6.03648 20.6497 10.2314 19.485L10.2314 24.2932C10.2314 24.9189 10.7659 25.4207 11.4031 25.3588C11.9545 25.3013 12.3572 24.7915 12.3572 24.2313L12.3572 20.7028C12.3572 20.2789 12.6457 19.8806 13.0652 19.8142C13.5953 19.7284 14.0564 20.139 14.0564 20.6577L14.0564 24.2932C14.0564 24.9189 14.5909 25.4207 15.2281 25.3588C15.7795 25.3013 16.1821 24.7915 16.1821 24.2313L16.1821 19.3293C16.1821 19.7532 16.4707 20.1514 16.8901 20.2178C17.4203 20.3037 17.8813 19.893 17.8813 19.3744L17.8813 26.4323C17.8813 27.0571 18.4159 27.5589 19.0531 27.497C19.6044 27.4394 20.0071 26.9297 20.0071 26.3703L20.0071 22.8418C20.0071 22.4179 20.2956 22.0188 20.7151 21.9533C21.2452 21.8666 21.7063 22.2781 21.7063 22.7967L21.7063 26.4323C21.7063 27.0571 22.2409 27.5589 22.8781 27.497C23.4294 27.4394 23.8321 26.9297 23.8321 26.3703L23.8321 19.3744C23.8321 19.893 24.2932 20.3037 24.8233 20.2178C25.2428 20.1514 25.5313 19.7532 25.5313 19.3293L25.5313 23.4383C25.5313 24.0631 26.0658 24.5649 26.7031 24.503C27.2544 24.4455 27.6571 23.9357 27.6571 23.3764L27.6571 19.847C27.6571 19.424 27.9456 19.0248 28.3651 18.9593C28.8952 18.8726 29.3563 19.2841 29.3563 19.8019L29.3563 23.4383C29.3563 24.0631 29.8908 24.5649 30.528 24.503C31.0794 24.4455 31.4821 23.9357 31.4821 23.3764L31.4821 20.6125C31.4821 21.0364 31.7706 21.4347 32.1901 21.5011C32.7202 21.5869 33.1813 21.1763 33.1813 20.6577L33.1813 27.7155C33.1813 28.3404 33.7158 28.8422 34.353 28.7802C34.9044 28.7227 35.307 28.2129 35.307 27.6536L35.307 24.1251C35.307 23.7012 35.5956 23.302 36.015 23.2366C36.5452 23.1498 37.0062 23.5613 37.0062 24.08L37.0062 27.7155C37.0062 28.3404 37.5408 28.8422 38.178 28.7802C38.2107 28.7767 38.2479 28.7722 38.2806 28.7643C38.7789 28.6572 39.132 28.1758 39.132 27.6536L39.132 20.6577C39.132 21.1763 39.5931 21.5869 40.1232 21.5011C40.5427 21.4347 40.8312 21.0364 40.8312 20.6125L40.8312 19.2638C45.52 20.4355 48.4812 22.1586 48.4812 24.08C48.4812 26.3128 44.4748 28.2784 38.4001 29.4263Z" fill="#35B276"/>
<path id="Vector_3" d="M36.1549 10.8201C37.8001 10.8201 39.132 9.47933 39.132 7.82526C39.132 6.17208 37.8001 4.8313 36.1549 4.8313C34.5141 4.8313 33.1813 6.17208 33.1813 7.82526C33.1813 9.47933 34.5141 10.8201 36.1549 10.8201Z" fill="#35B276"/>
<path id="Vector_4" d="M28.5049 6.54188C30.1501 6.54188 31.4821 5.2011 31.4821 3.54792C31.4821 1.89473 30.1501 0.553955 28.5049 0.553955C26.8641 0.553955 25.5313 1.89473 25.5313 3.54792C25.5313 5.2011 26.8641 6.54188 28.5049 6.54188Z" fill="#35B276"/>
<path id="Vector_5" d="M20.855 9.5369C22.5002 9.5369 23.8321 8.19613 23.8321 6.54206C23.8321 4.88887 22.5002 3.5481 20.855 3.5481C19.2142 3.5481 17.8813 4.88887 17.8813 6.54206C17.8813 8.19613 19.2142 9.5369 20.855 9.5369Z" fill="#35B276"/>
<path id="Vector_6" d="M13.205 7.39784C14.8502 7.39784 16.1821 6.05706 16.1821 4.40387C16.1821 2.75069 14.8502 1.40991 13.205 1.40991C11.5642 1.40991 10.2314 2.75069 10.2314 4.40387C10.2314 6.05706 11.5642 7.39784 13.205 7.39784Z" fill="#35B276"/>
<path id="Vector_7" d="M17.8115 10.6756C17.6796 10.7208 17.5522 10.7863 17.4371 10.8774C17.3017 10.9801 17.1654 11.1031 17.03 11.2473C16.9681 11.3128 16.9105 11.3792 16.8574 11.4491C16.3964 12.0332 16.1822 12.7811 16.1822 13.5298L16.1822 24.2312C16.1822 24.7914 15.7795 25.3012 15.2282 25.3587C14.591 25.4207 14.0564 24.9189 14.0564 24.2932L14.0564 20.6576C14.0564 20.139 13.5953 19.7283 13.0652 19.8142C12.6457 19.8805 12.3572 20.2788 12.3572 20.7027L12.3572 24.2312C12.3572 24.7914 11.9545 25.3012 11.4032 25.3587C10.766 25.4207 10.2314 24.9189 10.2314 24.2932L10.2314 17.2353C10.2314 17.7539 9.77034 18.1654 9.24023 18.0787C9.03048 18.0459 8.85348 17.9309 8.73047 17.7707C8.60657 17.6061 8.53223 17.3999 8.53223 17.1901L8.53223 11.3916C8.53223 10.6429 8.7464 9.89418 9.20748 9.31008C9.26058 9.24016 9.31811 9.17467 9.38006 9.10829C9.51546 8.96492 9.65175 8.84102 9.78716 8.73836C10.2067 8.41357 10.7739 8.3764 11.243 8.62331C11.6996 8.86226 12.3696 9.10829 13.205 9.10829C13.5006 9.10829 14.2989 9.07997 15.1671 8.62774C15.6353 8.38082 16.207 8.41357 16.6265 8.73836C16.7583 8.84102 16.8982 8.96492 17.03 9.10829C17.092 9.17467 17.1495 9.24016 17.2026 9.31008C17.515 9.70921 17.7168 10.1783 17.8115 10.6756Z" fill="#35B276"/>
<path id="Vector_8" d="M33.1813 10.5359L33.1813 11.9386C33.0246 11.9793 32.8724 12.0537 32.737 12.1608C32.6016 12.2634 32.4653 12.3864 32.3299 12.5307C32.2679 12.5962 32.2104 12.6625 32.1573 12.7325C31.6962 13.3166 31.4821 14.0644 31.4821 14.8131L31.4821 23.3764C31.4821 23.9357 31.0794 24.4455 30.528 24.503C29.8908 24.5649 29.3563 24.0631 29.3563 23.4383L29.3563 19.8019C29.3563 19.2841 28.8952 18.8726 28.3651 18.9593C27.9456 19.0248 27.6571 19.424 27.6571 19.847L27.6571 23.3764C27.6571 23.9357 27.2544 24.4455 26.703 24.503C26.0658 24.5649 25.5313 24.0631 25.5313 23.4383L25.5313 13.5298C25.5313 12.7811 25.3171 12.0333 24.8525 11.4492C24.7994 11.3793 24.741 11.3129 24.6799 11.2474C24.5481 11.1032 24.4082 10.9802 24.2764 10.8775C24.1454 10.7748 23.9932 10.7005 23.8321 10.6554L23.8321 10.5359C23.8321 9.78718 24.0463 9.03846 24.5073 8.45436C24.5604 8.38445 24.618 8.31896 24.6799 8.25347C24.8153 8.10921 24.9516 7.9862 25.087 7.88265C25.5065 7.55786 26.0738 7.52069 26.5429 7.7676C26.9995 8.00655 27.6695 8.25347 28.5049 8.25347C28.8005 8.25347 29.5988 8.22426 30.467 7.77203C30.9351 7.52511 31.5068 7.55786 31.9263 7.88265C32.0582 7.9862 32.198 8.10921 32.3299 8.25347C32.3909 8.31896 32.4494 8.38445 32.5025 8.45436C32.9671 9.03846 33.1813 9.78718 33.1813 10.5359Z" fill="#35B276"/>
</g>
</g>
</svg>
