<svg width="52" height="34" viewBox="0 0 52 34" fill="none" xmlns="http://www.w3.org/2000/svg">
<g id="Circles">
<g id="Circles_2">
<path id="Vector" d="M40.5038 17.5747C46.936 19.1288 51.1273 21.6625 51.1273 24.5255C51.1273 29.2505 39.7099 33.0799 25.6269 33.0799C11.5447 33.0799 0.127319 29.2505 0.127319 24.5255C0.127319 22.0289 3.31864 19.7828 8.40297 18.2163C8.52599 18.3765 8.70299 18.4916 8.91273 18.5243C9.44285 18.611 9.90394 18.1995 9.90394 17.6809L9.90394 19.9315C5.70903 21.0952 3.10535 22.7236 3.10535 24.5255C3.10535 28.0708 13.1899 30.9409 25.6269 30.9409C30.2298 30.9409 34.507 30.5506 38.0727 29.8718C44.1473 28.724 48.1537 26.7584 48.1537 24.5255C48.1537 22.6042 45.1925 20.8811 40.5038 19.7093L40.5038 17.5747Z" fill="#737373"/>
<path id="Vector_2" d="M40.5038 17.575L40.5038 15.2589C40.5038 14.5102 40.2896 13.7624 39.825 13.1783C39.7719 13.1083 39.7135 13.042 39.6524 12.9765C39.5205 12.8322 39.3807 12.7092 39.2488 12.6066C38.8293 12.2818 38.2576 12.2481 37.7895 12.495C36.9213 12.9473 36.123 12.9765 35.8274 12.9765C34.992 12.9765 34.322 12.7296 33.8654 12.4915C33.5485 12.3225 33.1866 12.2853 32.8538 12.3844L32.8538 10.9817C32.8538 10.233 32.6396 9.48426 32.175 8.90016C32.1219 8.83025 32.0635 8.76476 32.0024 8.69927C31.8706 8.55501 31.7307 8.432 31.5989 8.32845C31.1794 8.00366 30.6077 7.97091 30.1395 8.21783C29.2713 8.67006 28.4731 8.69927 28.1775 8.69927C27.342 8.69927 26.6721 8.45235 26.2154 8.2134C25.7464 7.96649 25.1791 8.00366 24.7596 8.32845C24.6242 8.432 24.4879 8.55501 24.3525 8.69927C24.2905 8.76476 24.233 8.83025 24.1799 8.90016C23.7188 9.48426 23.5047 10.233 23.5047 10.9817L23.5047 11.1012C23.1719 11.0065 22.8055 11.0436 22.4896 11.2118C21.6214 11.664 20.8231 11.6932 20.5275 11.6932C19.6921 11.6932 19.0221 11.4463 18.5655 11.2082C18.2238 11.0268 17.8336 10.9985 17.484 11.1215C17.3893 10.6241 17.1875 10.1551 16.8751 9.75596C16.822 9.68605 16.7645 9.62055 16.7025 9.55418C16.5707 9.41081 16.4308 9.28691 16.299 9.18425C15.8795 8.85945 15.3078 8.82671 14.8396 9.07362C13.9714 9.52586 13.1731 9.55418 12.8775 9.55418C12.0421 9.55418 11.3722 9.30815 10.9155 9.0692C10.4464 8.82228 9.87916 8.85945 9.45967 9.18425C9.32426 9.28691 9.18797 9.41081 9.05257 9.55418C8.99061 9.62055 8.93309 9.68605 8.87999 9.75596C8.4189 10.3401 8.20473 11.0888 8.20473 11.8375L8.20473 17.636C8.20473 17.8458 8.27907 18.052 8.40297 18.2166C3.31864 19.783 0.127319 22.0292 0.127319 24.5258C0.127319 29.2508 11.5447 33.0802 25.6269 33.0802C39.7099 33.0802 51.1273 29.2508 51.1273 24.5258C51.1273 21.6628 46.936 19.129 40.5038 17.575ZM38.0727 29.8721C34.507 30.5509 30.2298 30.9411 25.6269 30.9411C13.1899 30.9411 3.10535 28.0711 3.10535 24.5258C3.10535 22.7239 5.70903 21.0955 9.90394 19.9308L9.90394 24.739C9.90394 25.3647 10.4385 25.8665 11.0757 25.8046C11.627 25.7471 12.0297 25.2373 12.0297 24.6771L12.0297 21.1486C12.0297 20.7247 12.3182 20.3264 12.7377 20.2601C13.2678 20.1742 13.7289 20.5848 13.7289 21.1035L13.7289 24.739C13.7289 25.3647 14.2635 25.8665 14.9007 25.8046C15.452 25.7471 15.8547 25.2373 15.8547 24.6771L15.8547 19.7751C15.8547 20.199 16.1432 20.5972 16.5627 20.6636C17.0928 20.7495 17.5539 20.3388 17.5539 19.8202L17.5539 26.8781C17.5539 27.5029 18.0884 28.0047 18.7256 27.9428C19.277 27.8852 19.6797 27.3755 19.6797 26.8161L19.6797 23.2876C19.6797 22.8637 19.9682 22.4646 20.3877 22.3991C20.9178 22.3124 21.3789 22.7239 21.3789 23.2425L21.3789 26.8781C21.3789 27.5029 21.9134 28.0047 22.5506 27.9428C23.102 27.8852 23.5047 27.3755 23.5047 26.8161L23.5047 19.8202C23.5047 20.3388 23.9657 20.7495 24.4959 20.6636C24.9153 20.5972 25.2039 20.199 25.2039 19.7751L25.2039 23.8841C25.2039 24.5089 25.7384 25.0107 26.3756 24.9488C26.927 24.8913 27.3296 24.3815 27.3296 23.8222L27.3296 20.2928C27.3296 19.8698 27.6181 19.4706 28.0376 19.4051C28.5677 19.3184 29.0288 19.7299 29.0288 20.2477L29.0288 23.8841C29.0288 24.5089 29.5634 25.0107 30.2006 24.9488C30.7519 24.8913 31.1546 24.3815 31.1546 23.8222L31.1546 21.0583C31.1546 21.4822 31.4431 21.8805 31.8626 21.9469C32.3927 22.0327 32.8538 21.6221 32.8538 21.1035L32.8538 28.1614C32.8538 28.7862 33.3884 29.288 34.0256 29.226C34.5769 29.1685 34.9796 28.6587 34.9796 28.0994L34.9796 24.5709C34.9796 24.147 35.2681 23.7478 35.6876 23.6824C36.2177 23.5956 36.6788 24.0071 36.6788 24.5258L36.6788 28.1614C36.6788 28.7862 37.2133 29.288 37.8505 29.226C37.8833 29.2225 37.9204 29.218 37.9532 29.2101C38.4515 29.103 38.8046 28.6216 38.8046 28.0994L38.8046 21.1035C38.8046 21.6221 39.2657 22.0327 39.7958 21.9469C40.2153 21.8805 40.5038 21.4822 40.5038 21.0583L40.5038 19.7096C45.1925 20.8813 48.1537 22.6044 48.1537 24.5258C48.1537 26.7586 44.1473 28.7242 38.0727 29.8721Z" fill="#737373"/>
<path id="Vector_3" d="M35.8274 11.2657C37.4726 11.2657 38.8045 9.92489 38.8045 8.27082C38.8045 6.61763 37.4726 5.27686 35.8274 5.27686C34.1866 5.27686 32.8538 6.61763 32.8538 8.27082C32.8538 9.92489 34.1866 11.2657 35.8274 11.2657Z" fill="#737373"/>
<path id="Vector_4" d="M28.1775 6.98744C29.8227 6.98744 31.1546 5.64666 31.1546 3.99347C31.1546 2.34029 29.8227 0.999512 28.1775 0.999512C26.5367 0.999512 25.2039 2.34029 25.2039 3.99347C25.2039 5.64666 26.5367 6.98744 28.1775 6.98744Z" fill="#737373"/>
<path id="Vector_5" d="M20.5276 9.98246C22.1728 9.98246 23.5047 8.64168 23.5047 6.98761C23.5047 5.33443 22.1728 3.99365 20.5276 3.99365C18.8868 3.99365 17.554 5.33443 17.554 6.98761C17.554 8.64168 18.8868 9.98246 20.5276 9.98246Z" fill="#737373"/>
<path id="Vector_6" d="M12.8775 7.84339C14.5228 7.84339 15.8547 6.50261 15.8547 4.84943C15.8547 3.19625 14.5228 1.85547 12.8775 1.85547C11.2367 1.85547 9.90393 3.19625 9.90393 4.84943C9.90393 6.50261 11.2367 7.84339 12.8775 7.84339Z" fill="#737373"/>
<path id="Vector_7" d="M17.484 11.1212C17.3521 11.1663 17.2247 11.2318 17.1096 11.323C16.9742 11.4256 16.8379 11.5486 16.7025 11.6929C16.6406 11.7584 16.583 11.8248 16.5299 11.8947C16.0688 12.4788 15.8547 13.2266 15.8547 13.9753L15.8547 24.6768C15.8547 25.237 15.452 25.7467 14.9006 25.8043C14.2634 25.8662 13.7289 25.3644 13.7289 24.7387L13.7289 21.1031C13.7289 20.5845 13.2678 20.1739 12.7377 20.2597C12.3182 20.3261 12.0297 20.7243 12.0297 21.1483L12.0297 24.6768C12.0297 25.237 11.627 25.7467 11.0757 25.8043C10.4385 25.8662 9.90392 25.3644 9.90392 24.7387L9.90392 17.6808C9.90392 18.1994 9.44283 18.611 8.91271 18.5242C8.70297 18.4915 8.52597 18.3764 8.40295 18.2163C8.27905 18.0516 8.20471 17.8454 8.20471 17.6357L8.20471 11.8372C8.20471 11.0884 8.41888 10.3397 8.87997 9.75563C8.93307 9.68572 8.99059 9.62023 9.05254 9.55385C9.18795 9.41048 9.32424 9.28658 9.45964 9.18392C9.87914 8.85913 10.4464 8.82195 10.9155 9.06887C11.3721 9.30782 12.0421 9.55385 12.8775 9.55385C13.1731 9.55385 13.9714 9.52553 14.8396 9.0733C15.3077 8.82638 15.8794 8.85913 16.2989 9.18392C16.4308 9.28658 16.5706 9.41048 16.7025 9.55385C16.7645 9.62023 16.822 9.68572 16.8751 9.75563C17.1875 10.1548 17.3893 10.6238 17.484 11.1212Z" fill="#737373"/>
<path id="Vector_8" d="M32.8538 10.9817L32.8538 12.3844C32.6972 12.4251 32.5449 12.4995 32.4095 12.6066C32.2741 12.7092 32.1378 12.8322 32.0024 12.9765C31.9405 13.042 31.883 13.1083 31.8299 13.1783C31.3688 13.7624 31.1546 14.5102 31.1546 15.2589L31.1546 23.8222C31.1546 24.3815 30.7519 24.8913 30.2006 24.9488C29.5634 25.0107 29.0288 24.5089 29.0288 23.8841L29.0288 20.2477C29.0288 19.7299 28.5677 19.3184 28.0376 19.4051C27.6181 19.4706 27.3296 19.8698 27.3296 20.2928L27.3296 23.8222C27.3296 24.3815 26.9269 24.8913 26.3756 24.9488C25.7384 25.0107 25.2038 24.5089 25.2038 23.8841L25.2038 13.9757C25.2038 13.2269 24.9897 12.4791 24.525 11.895C24.4719 11.8251 24.4135 11.7587 24.3525 11.6932C24.2206 11.549 24.0808 11.426 23.9489 11.3233C23.8179 11.2206 23.6657 11.1463 23.5046 11.1012L23.5046 10.9817C23.5046 10.233 23.7188 9.48426 24.1799 8.90016C24.233 8.83025 24.2905 8.76476 24.3525 8.69927C24.4879 8.55501 24.6242 8.432 24.7596 8.32845C25.1791 8.00366 25.7463 7.96649 26.2154 8.2134C26.6721 8.45235 27.342 8.69927 28.1774 8.69927C28.473 8.69927 29.2713 8.67006 30.1395 8.21783C30.6077 7.97091 31.1794 8.00366 31.5989 8.32845C31.7307 8.432 31.8706 8.55501 32.0024 8.69927C32.0635 8.76476 32.1219 8.83025 32.175 8.90016C32.6396 9.48426 32.8538 10.233 32.8538 10.9817Z" fill="#737373"/>
</g>
</g>
</svg>
