<svg width="37" height="37" viewBox="0 0 37 37" fill="none" xmlns="http://www.w3.org/2000/svg">
<path id="Vector" fill-rule="evenodd" clip-rule="evenodd" d="M18.5 37C28.7173 37 37 28.7173 37 18.5C37 8.28272 28.7173 6.79862e-09 18.5 4.37975e-09C8.28272 1.96088e-09 -1.96088e-09 8.28272 -4.37975e-09 18.5C-6.79862e-09 28.7173 8.28272 37 18.5 37ZM13.5712 9.44107C13.617 8.98245 14.0029 8.63329 14.4636 8.63329L17.1545 8.63329C17.4081 8.63329 17.6497 8.74063 17.8197 8.92843C17.9897 9.11623 18.0723 9.3674 18.0472 9.61951L17.742 12.6696L20.424 12.6696L20.747 9.44107C20.7929 8.98245 21.1785 8.63329 21.6395 8.63329L24.3304 8.63329C24.5836 8.63329 24.8252 8.74063 24.9955 8.92843C25.1655 9.11623 25.2481 9.3674 25.2228 9.61951L24.9178 12.6696L27.4696 12.6696C27.9652 12.6696 28.3667 13.0712 28.3667 13.5668L28.3667 16.2577C28.3667 16.753 27.9652 17.1545 27.4696 17.1545L24.4693 17.1545L24.2003 19.8454L27.4696 19.8454C27.9652 19.8454 28.3667 20.247 28.3667 20.7423L28.3667 23.4332C28.3667 23.9288 27.9652 24.3304 27.4696 24.3304L23.7518 24.3304L23.429 27.5589C23.383 28.0175 22.9973 28.3667 22.5364 28.3667L19.8454 28.3667C19.5919 28.3667 19.3503 28.2596 19.1806 28.0716C19.0103 27.8838 18.9277 27.6326 18.953 27.3805L19.258 24.3304L16.576 24.3304L16.2532 27.5589C16.2074 28.0175 15.8215 28.3667 15.3605 28.3667L12.6696 28.3667C12.4164 28.3667 12.1748 28.2596 12.0047 28.0716C11.8347 27.8838 11.7519 27.6326 11.7772 27.3805L12.0822 24.3304L9.53041 24.3304C9.03507 24.3304 8.63329 23.9288 8.63329 23.4332L8.63329 20.7423C8.63329 20.247 9.03507 19.8454 9.53041 19.8454L12.5307 19.8454L12.7999 17.1545L9.53041 17.1545C9.03507 17.1545 8.63329 16.753 8.63329 16.2577L8.63329 13.5668C8.63329 13.0712 9.03507 12.6696 9.53041 12.6696L13.2482 12.6696L13.5712 9.44107ZM19.9757 17.1545L17.2937 17.1545L17.0245 19.8454L19.7065 19.8454L19.9757 17.1545Z" fill="#737373"/>
</svg>
