<svg width="38" height="35" viewBox="0 0 38 35" fill="none" xmlns="http://www.w3.org/2000/svg">
<g id="Home" clip-path="url(#clip0_80_1554)">
<g id="Home_2">
<path id="Vector" d="M30.8202 16.098L20.6322 8.56762C19.731 7.90129 18.2582 7.90129 17.3578 8.56762L7.169 16.098C6.26775 16.7634 5.53052 17.7382 5.53052 18.2661L5.53052 29.1836C5.53052 30.9553 7.05026 32.3931 8.92537 32.3931L15.1478 32.3931L15.1478 22.7365C15.1478 21.9907 15.7586 21.3807 16.5044 21.3807L21.4831 21.3807C22.2288 21.3807 22.8396 21.9907 22.8396 22.7365L22.8396 32.3931L29.063 32.3931C30.9372 32.3931 32.4552 30.9553 32.4552 29.1836L32.4552 18.2661C32.457 17.7382 31.7214 16.7634 30.8202 16.098Z" fill="#35B276"/>
<path id="Vector_2" d="M35.1683 11.5182L29.7156 7.50743L29.7156 2.72269C29.7156 1.97265 29.1065 1.36612 28.3573 1.36612L26.1507 1.36612C25.4007 1.36612 24.7924 1.9735 24.7924 2.72269L24.7924 3.88535L20.6356 0.827077C19.7335 0.162459 18.2565 0.162459 17.3544 0.827077L2.82159 11.5182C1.91949 12.182 1.72472 13.4651 2.38848 14.368L2.79084 14.9131C3.45375 15.816 4.736 16.0116 5.63725 15.3479L17.3544 6.72407C18.2565 6.0603 19.7335 6.0603 20.6356 6.72407L32.3518 15.3479C33.2539 16.0116 34.5353 15.8152 35.1982 14.9131L35.6006 14.368C36.2635 13.4651 36.0696 12.182 35.1683 11.5182Z" fill="#35B276"/>
</g>
</g>
<defs>
<clipPath id="clip0_80_1554">
<rect width="37.0872" height="34.6342" fill="white" transform="translate(0 0.328613) rotate(-0.227573)"/>
</clipPath>
</defs>
</svg>
