<svg width="38" height="36" viewBox="0 0 38 36" fill="none" xmlns="http://www.w3.org/2000/svg">
<g id="Home">
<g id="Home_2">
<path id="Vector" d="M30.8201 16.7693L20.6321 9.239C19.7308 8.57268 18.2581 8.57268 17.3577 9.239L7.16888 16.7693C6.26763 17.4348 5.5304 18.4095 5.5304 18.9375L5.5304 29.855C5.5304 31.6267 7.05013 33.0645 8.92524 33.0645L15.1477 33.0645L15.1477 23.4078C15.1477 22.6621 15.7585 22.0521 16.5043 22.0521L21.4829 22.0521C22.2287 22.0521 22.8395 22.6621 22.8395 23.4078L22.8395 33.0645L29.0628 33.0645C30.9371 33.0645 32.4551 31.6267 32.4551 29.855L32.4551 18.9375C32.4568 18.4095 31.7213 17.4348 30.8201 16.7693Z" fill="#737373"/>
<path id="Vector_2" d="M35.1683 12.1896L29.7156 8.17882L29.7156 3.39408C29.7156 2.64403 29.1065 2.03751 28.3573 2.03751L26.1507 2.03751C25.4007 2.03751 24.7924 2.64489 24.7924 3.39408L24.7924 4.55673L20.6356 1.49846C19.7335 0.833845 18.2565 0.833845 17.3544 1.49846L2.82159 12.1896C1.91949 12.8534 1.72472 14.1365 2.38848 15.0394L2.79084 15.5844C3.45375 16.4874 4.736 16.683 5.63725 16.0193L17.3544 7.39546C18.2565 6.73169 19.7335 6.73169 20.6356 7.39546L32.3518 16.0193C33.2539 16.683 34.5353 16.4865 35.1982 15.5844L35.6006 15.0394C36.2635 14.1365 36.0696 12.8534 35.1683 12.1896Z" fill="#737373"/>
</g>
</g>
</svg>
