<svg width="785" height="818" viewBox="0 0 785 818" fill="none" xmlns="http://www.w3.org/2000/svg">
<g clip-path="url(#clip0_16_285)">
<path d="M75.4902 689.094L68.5766 660.765C56.3185 655.368 43.7771 650.693 31.0123 646.763L30.1396 659.929L26.6006 645.424C10.7699 640.723 0 638.654 0 638.654C0 638.654 14.5439 696.126 45.0587 740.064L80.6112 746.552L52.9915 750.69C56.8299 755.488 60.9549 760.031 65.3422 764.291C109.727 807.095 159.165 826.733 175.763 808.154C192.361 789.576 169.835 739.817 125.45 697.019C111.69 683.749 94.4047 673.101 77.1017 664.718L75.4902 689.094Z" fill="#F2F2F2"/>
<path d="M141.239 658.324L149.415 630.361C141.608 619.158 133.199 608.421 124.227 598.202L116.93 609.003L121.116 594.686C109.901 582.164 101.711 574.61 101.711 574.61C101.711 574.61 85.5709 631.62 89.8286 685.619L117.035 710.266L91.3283 698.975C92.2278 705.145 93.4999 711.25 95.1371 717.254C111.837 777.732 144.387 821.092 167.839 814.102C191.29 807.112 196.764 752.419 180.064 691.941C174.887 673.193 165.387 654.795 154.746 638.328L141.239 658.324Z" fill="#F2F2F2"/>
<path d="M547.769 193.785H543.456V71.0426C543.456 61.7131 541.688 52.4751 538.251 43.8558C534.815 35.2365 529.778 27.4048 523.428 20.8079C517.078 14.211 509.54 8.97801 501.244 5.40779C492.948 1.83757 484.056 0 475.076 0H224.766C206.63 0 189.237 7.48482 176.413 20.8079C163.589 34.131 156.385 52.2009 156.385 71.0426V744.427C156.385 753.756 158.154 762.994 161.59 771.614C165.027 780.233 170.063 788.065 176.413 794.662C182.763 801.259 190.301 806.492 198.597 810.062C206.894 813.632 215.786 815.469 224.766 815.469H475.076C493.211 815.469 510.604 807.984 523.427 794.661C536.251 781.338 543.455 763.268 543.455 744.427V281.155H547.768L547.769 193.785Z" fill="#E6E6E6"/>
<path d="M477.835 18.476H445.164C446.666 22.3034 447.24 26.456 446.834 30.568C446.428 34.68 445.054 38.6251 442.835 42.0558C440.615 45.4865 437.618 48.2974 434.107 50.2409C430.595 52.1844 426.677 53.2008 422.699 53.2007H279.299C275.32 53.2005 271.403 52.1838 267.892 50.2401C264.381 48.2964 261.383 45.4855 259.164 42.0549C256.945 38.6243 255.572 34.6793 255.166 30.5675C254.76 26.4557 255.333 22.3032 256.836 18.476H226.319C212.775 18.476 199.787 24.0655 190.21 34.0151C180.633 43.9646 175.253 57.4591 175.253 71.5299V743.936C175.253 758.007 180.633 771.502 190.21 781.451C199.787 791.401 212.775 796.99 226.319 796.99H477.835C491.378 796.99 504.367 791.401 513.944 781.451C523.521 771.502 528.901 758.007 528.901 743.936V71.5288C528.901 57.4582 523.52 43.964 513.944 34.0147C504.367 24.0654 491.378 18.476 477.835 18.476Z" fill="white"/>
<path d="M320.027 286.329C320.026 281.628 321.217 277.011 323.48 272.941C325.743 268.871 328.997 265.492 332.916 263.144C328.999 260.794 324.556 259.556 320.032 259.556C315.508 259.555 311.064 260.792 307.147 263.141C303.229 265.491 299.976 268.871 297.714 272.94C295.452 277.01 294.261 281.627 294.261 286.327C294.261 291.027 295.452 295.643 297.714 299.713C299.976 303.783 303.229 307.163 307.147 309.512C311.064 311.862 315.508 313.099 320.032 313.098C324.556 313.098 328.999 311.86 332.916 309.509C328.998 307.162 325.743 303.784 323.48 299.714C321.218 295.645 320.027 291.028 320.027 286.329Z" fill="#CCCCCC"/>
<path d="M352.421 286.329C352.42 281.628 353.611 277.011 355.874 272.941C358.136 268.871 361.391 265.492 365.31 263.144C361.393 260.794 356.949 259.556 352.426 259.556C347.902 259.555 343.458 260.792 339.541 263.141C335.623 265.491 332.37 268.871 330.108 272.94C327.846 277.01 326.655 281.627 326.655 286.327C326.655 291.027 327.846 295.643 330.108 299.713C332.37 303.783 335.623 307.163 339.541 309.512C343.458 311.862 347.902 313.099 352.426 313.098C356.949 313.098 361.393 311.86 365.31 309.509C361.391 307.162 358.137 303.784 355.874 299.714C353.611 295.645 352.42 291.028 352.421 286.329Z" fill="#CCCCCC"/>
<path d="M384.079 313.099C398.311 313.099 409.847 301.113 409.847 286.327C409.847 271.542 398.311 259.556 384.079 259.556C369.848 259.556 358.311 271.542 358.311 286.327C358.311 301.113 369.848 313.099 384.079 313.099Z" fill="#5AE895"/>
<path d="M427.144 369.944H276.962C275.533 369.942 274.162 369.352 273.151 368.301C272.14 367.251 271.571 365.827 271.57 364.341V208.313C271.571 206.828 272.14 205.404 273.151 204.354C274.162 203.303 275.533 202.712 276.962 202.711H427.144C428.574 202.712 429.945 203.303 430.956 204.354C431.967 205.404 432.535 206.828 432.537 208.313V364.341C432.535 365.827 431.967 367.251 430.956 368.301C429.945 369.352 428.574 369.942 427.144 369.944ZM276.962 204.953C276.105 204.954 275.282 205.308 274.675 205.939C274.069 206.569 273.728 207.423 273.727 208.314V364.343C273.728 365.234 274.069 366.088 274.675 366.718C275.282 367.349 276.105 367.703 276.962 367.704H427.144C428.002 367.703 428.824 367.349 429.431 366.718C430.038 366.088 430.379 365.234 430.38 364.343V208.314C430.379 207.423 430.038 206.569 429.431 205.939C428.824 205.308 428.002 204.954 427.144 204.953H276.962Z" fill="#CCCCCC"/>
<path d="M460.677 489.547H230.344V491.788H460.677V489.547Z" fill="#CCCCCC"/>
<path d="M237.618 475.554C241.635 475.554 244.892 472.17 244.892 467.997C244.892 463.823 241.635 460.439 237.618 460.439C233.601 460.439 230.344 463.823 230.344 467.997C230.344 472.17 233.601 475.554 237.618 475.554Z" fill="#5AE895"/>
<path d="M460.677 565.115H230.344V567.357H460.677V565.115Z" fill="#CCCCCC"/>
<path d="M237.618 551.123C241.635 551.123 244.892 547.739 244.892 543.566C244.892 539.392 241.635 536.009 237.618 536.009C233.601 536.009 230.344 539.392 230.344 543.566C230.344 547.739 233.601 551.123 237.618 551.123Z" fill="#5AE895"/>
<path d="M456.462 651.169H383.67C382.413 651.167 381.208 650.648 380.318 649.724C379.429 648.8 378.929 647.548 378.928 646.241V619.735C378.929 618.429 379.429 617.177 380.318 616.253C381.208 615.329 382.413 614.81 383.67 614.808H456.462C457.719 614.81 458.925 615.329 459.814 616.253C460.703 617.177 461.203 618.429 461.205 619.735V646.241C461.203 647.548 460.703 648.8 459.814 649.724C458.925 650.648 457.719 651.167 456.462 651.169Z" fill="#5AE895"/>
<path d="M261.346 475.554C265.363 475.554 268.62 472.17 268.62 467.997C268.62 463.823 265.363 460.439 261.346 460.439C257.328 460.439 254.072 463.823 254.072 467.997C254.072 472.17 257.328 475.554 261.346 475.554Z" fill="#5AE895"/>
<path d="M285.073 475.554C289.091 475.554 292.347 472.17 292.347 467.997C292.347 463.823 289.091 460.439 285.073 460.439C281.056 460.439 277.799 463.823 277.799 467.997C277.799 472.17 281.056 475.554 285.073 475.554Z" fill="#5AE895"/>
<path d="M261.346 551.123C265.363 551.123 268.62 547.739 268.62 543.566C268.62 539.392 265.363 536.009 261.346 536.009C257.328 536.009 254.072 539.392 254.072 543.566C254.072 547.739 257.328 551.123 261.346 551.123Z" fill="#5AE895"/>
<path d="M285.073 551.123C289.091 551.123 292.347 547.739 292.347 543.566C292.347 539.392 289.091 536.009 285.073 536.009C281.056 536.009 277.799 539.392 277.799 543.566C277.799 547.739 281.056 551.123 285.073 551.123Z" fill="#5AE895"/>
<path d="M782.068 818H25.3781C23.7582 818 22.4461 817.402 22.4461 816.666C22.4461 815.93 23.7582 815.332 25.3781 815.332H782.068C783.687 815.332 785 815.929 785 816.666C785 817.403 783.687 818 782.068 818Z" fill="#3F3D56"/>
<path d="M595.116 535.928C595.633 536.173 596.13 536.462 596.603 536.79L643.873 515.829L645.56 502.892L664.448 502.772L663.332 532.443L600.941 549.585C600.81 550.036 600.652 550.478 600.47 550.908C599.567 552.908 598.117 554.586 596.3 555.732C594.483 556.878 592.38 557.441 590.256 557.35C588.132 557.258 586.082 556.517 584.362 555.219C582.643 553.921 581.33 552.124 580.591 550.053C579.851 547.983 579.716 545.732 580.204 543.582C580.692 541.433 581.78 539.481 583.332 537.971C584.884 536.462 586.83 535.463 588.927 535.1C591.023 534.736 593.177 535.024 595.116 535.928Z" fill="#FFB8B8"/>
<path d="M671.317 804.799H658.396L652.25 753.022L671.319 753.023L671.317 804.799Z" fill="#FFB8B8"/>
<path d="M649.167 800.964H674.086V817.264H633.478C633.478 812.941 635.131 808.795 638.073 805.738C641.015 802.681 645.006 800.964 649.167 800.964Z" fill="#2F2E41"/>
<path d="M721.567 801.007L708.709 802.323L697.705 751.421L716.683 749.479L721.567 801.007Z" fill="#FFB8B8"/>
<path d="M699.163 799.445L723.961 796.908L725.499 813.129L685.087 817.265C684.885 815.134 685.089 812.984 685.687 810.935C686.285 808.887 687.266 806.981 688.573 805.326C689.88 803.672 691.488 802.3 693.305 801.291C695.122 800.282 697.112 799.655 699.163 799.445Z" fill="#2F2E41"/>
<path d="M674.914 447.976C689.21 447.976 700.799 435.935 700.799 421.083C700.799 406.23 689.21 394.19 674.914 394.19C660.618 394.19 649.029 406.23 649.029 421.083C649.029 435.935 660.618 447.976 674.914 447.976Z" fill="#FFB8B8"/>
<path d="M655.509 794.329C654.399 794.332 653.323 793.927 652.472 793.186C651.62 792.446 651.048 791.417 650.856 790.28C644.168 751.711 622.308 625.597 621.785 622.103C621.774 622.023 621.768 621.942 621.769 621.861V612.457C621.768 612.115 621.871 611.781 622.063 611.502L624.951 607.3C625.088 607.098 625.268 606.931 625.477 606.813C625.686 606.694 625.918 606.627 626.156 606.616C642.62 605.814 696.54 603.464 699.145 606.845C701.762 610.243 700.837 620.539 700.625 622.568L700.636 622.78L724.86 783.73C725.05 785.014 724.745 786.323 724.012 787.375C723.28 788.428 722.178 789.138 720.945 789.352L705.815 791.942C704.688 792.13 703.533 791.892 702.561 791.27C701.589 790.649 700.864 789.686 700.518 788.556C695.838 773.02 680.147 720.76 674.709 700.538C674.675 700.409 674.597 700.299 674.49 700.226C674.383 700.153 674.255 700.123 674.128 700.141C674.001 700.16 673.886 700.226 673.802 700.327C673.719 700.428 673.674 700.557 673.676 700.689C673.947 719.966 674.604 769.148 674.83 786.135L674.855 787.964C674.865 789.203 674.428 790.4 673.629 791.32C672.83 792.24 671.729 792.815 670.542 792.931L655.952 794.308C655.803 794.322 655.655 794.329 655.509 794.329Z" fill="#2F2E41"/>
<path d="M658.486 458.55C653.968 461.34 651.265 466.467 649.714 471.684C646.843 481.342 645.114 491.328 644.567 501.421L642.927 531.642L622.634 611.758C640.223 627.219 650.368 623.706 674.044 611.059C697.72 598.412 700.426 615.275 700.426 615.275L705.16 547.107L711.925 472.616C710.407 470.716 708.688 468.999 706.801 467.498C700.549 462.447 693.274 458.936 685.526 457.23C677.778 455.524 669.758 455.667 662.071 457.648L658.486 458.55Z" fill="#5AE895"/>
<path d="M651.894 552.108C652.44 552.322 652.969 552.579 653.476 552.879L700.215 528.574L700.991 515.407L720.271 514.026L721.304 544.041L658.843 565.501C658.333 567.774 657.169 569.831 655.506 571.4C653.843 572.969 651.76 573.974 649.534 574.283C647.307 574.592 645.043 574.189 643.042 573.128C641.042 572.067 639.399 570.399 638.333 568.345C637.268 566.291 636.829 563.948 637.076 561.628C637.323 559.309 638.244 557.123 639.716 555.36C641.188 553.597 643.142 552.342 645.317 551.761C647.493 551.181 649.787 551.302 651.894 552.108Z" fill="#FFB8B8"/>
<path d="M711.587 472.957C723.086 477.173 725.112 522.857 725.112 522.857C711.583 515.126 695.348 527.777 695.348 527.777C695.348 527.777 691.966 515.829 687.907 500.368C686.682 496.019 686.535 491.419 687.481 486.995C688.427 482.572 690.435 478.469 693.318 475.068C693.318 475.068 700.087 468.737 711.587 472.957Z" fill="#5AE895"/>
<path d="M698.124 428.195C694.899 425.514 690.498 430.386 690.498 430.386L687.918 406.261C687.918 406.261 671.792 408.268 661.472 405.592C651.151 402.915 649.539 415.309 649.539 415.309C649.007 410.303 648.899 405.257 649.217 400.231C649.861 394.2 658.247 388.168 673.082 384.147C687.918 380.126 695.658 397.55 695.658 397.55C705.98 402.911 701.349 430.876 698.124 428.195Z" fill="#2F2E41"/>
</g>
<defs>
<clipPath id="clip0_16_285">
<rect width="785" height="818" fill="white"/>
</clipPath>
</defs>
</svg>
