<svg width="30" height="31" viewBox="0 0 30 31" fill="none" xmlns="http://www.w3.org/2000/svg">
<g id="Messages">
<g id="Chat">
<path id="Vector" d="M14.6151 29.9995C10.7421 29.9995 7.10092 28.4913 4.36166 25.752C1.62333 23.0137 0.115112 19.3725 0.115112 15.4995C0.115112 11.6265 1.62333 7.98532 4.36166 5.24699C7.10092 2.50773 10.7421 0.999512 14.6151 0.999512C18.4881 0.999512 22.1293 2.50773 24.8676 5.24699C27.606 7.98532 29.1142 11.6265 29.1142 15.4995C29.1142 17.6566 28.5098 19.6571 28.482 19.7479C28.24 20.5386 27.9295 21.3127 27.5559 22.0506L28.9761 29.2347C29.0048 29.3766 28.9612 29.523 28.8602 29.6259C28.7591 29.7298 28.6136 29.7761 28.4709 29.7511L21.1143 28.4616C20.3356 28.8538 19.5189 29.1754 18.6837 29.4192C18.6021 29.4433 16.6703 29.9995 14.6151 29.9995Z" fill="#737373"/>
<path id="Vector_2" d="M17.4435 15.5069C17.4435 13.9449 16.1782 12.6768 14.6144 12.6768C13.0505 12.6768 11.7843 13.9449 11.7843 15.5069C11.7843 17.0679 13.0505 18.336 14.6144 18.336C16.1782 18.336 17.4435 17.0679 17.4435 15.5069ZM9.92471 15.5069C9.92471 13.9449 8.65752 12.6768 7.09554 12.6768C5.53355 12.6768 4.26636 13.9449 4.26636 15.5069C4.26636 17.0679 5.53355 18.336 7.09554 18.336C8.65752 18.336 9.92471 17.0679 9.92471 15.5069ZM22.1332 18.336C20.5694 18.336 19.3031 17.0679 19.3031 15.5069C19.3031 13.9449 20.5694 12.6768 22.1332 12.6768C23.6942 12.6768 24.9624 13.9449 24.9624 15.5069C24.9624 17.0679 23.6942 18.336 22.1332 18.336Z" fill="white"/>
</g>
</g>
</svg>
