<svg width="30" height="30" viewBox="0 0 30 30" fill="none" xmlns="http://www.w3.org/2000/svg">
<g id="Messages">
<g id="Chat">
<path id="Vector" d="M14.7705 29.8673C10.8976 29.8511 7.26276 28.3275 4.53504 25.5768C1.80824 22.827 0.315347 19.1794 0.331627 15.3065C0.347907 11.4336 1.87141 7.79873 4.62123 5.07193C7.37198 2.34421 11.0195 0.851311 14.8925 0.867591C18.7654 0.883871 22.4002 2.40738 25.127 5.15812C27.8538 7.90794 29.3467 11.5555 29.3304 15.4284C29.3214 17.5855 28.7086 19.5834 28.6804 19.6741C28.4351 20.4638 28.1213 21.2365 27.7446 21.9729L29.1346 29.1629C29.1627 29.3049 29.1185 29.4512 29.0171 29.5536C28.9156 29.657 28.7699 29.7028 28.6272 29.6771L21.2761 28.3568C20.4958 28.7456 19.6778 29.0639 18.8415 29.3041C18.7598 29.3279 16.8257 29.876 14.7705 29.8673Z" fill="#35B276"/>
<path id="Vector_2" d="M17.6598 15.3869C17.6664 13.825 16.4064 12.5515 14.8425 12.545C13.2787 12.5384 12.0071 13.8012 12.0006 15.3631C11.994 16.9242 13.2549 18.1976 14.8188 18.2042C16.3826 18.2108 17.6532 16.948 17.6598 15.3869ZM10.141 15.3553C10.1476 13.7934 8.88575 12.5199 7.32378 12.5134C5.76182 12.5068 4.4893 13.7696 4.48273 15.3315C4.47617 16.8926 5.73803 18.166 7.29999 18.1726C8.86196 18.1792 10.1345 16.9164 10.141 15.3553ZM22.3375 18.2358C20.7737 18.2292 19.5128 16.9558 19.5193 15.3948C19.5259 13.8328 20.7975 12.57 22.3613 12.5766C23.9223 12.5831 25.1851 13.8566 25.1786 15.4185C25.172 16.9796 23.8986 18.2424 22.3375 18.2358Z" fill="white"/>
</g>
</g>
</svg>
