<svg width="34" height="30" viewBox="0 0 34 30" fill="none" xmlns="http://www.w3.org/2000/svg">
<g id="Notification">
<circle id="Ellipse 14" cx="18.6228" cy="14.5078" r="14.3936" fill="#D9D9D9"/>
<path id="Notifications" d="M24.9274 9.41555C25.2659 9.07667 25.2663 8.52633 24.9274 8.18745C24.5875 7.84766 24.0379 7.84811 23.6984 8.187C22.115 6.60403 19.548 6.60449 17.965 8.18745L14.1038 12.0476C13.7648 12.3865 13.3916 12.5162 12.6414 12.281C12.1832 12.1371 11.518 12.1755 11.1786 12.5148C10.8396 12.8541 10.3408 13.3524 10.3408 13.3524L10.3453 13.3561C9.61209 14.1722 10.6816 16.5147 12.7881 18.8544C12.858 18.4977 13.0014 18.1529 13.2152 17.8419C11.6108 15.9707 11.0712 14.5312 11.0977 14.0571C11.1032 14.0571 11.1092 14.0567 11.1151 14.0567C11.9598 14.0567 13.9434 15.1427 15.9567 17.155C16.0751 17.2733 16.1861 17.3893 16.2966 17.5058C16.0294 17.3861 15.7429 17.3235 15.4551 17.3235C14.9288 17.3235 14.4021 17.5245 14.001 17.9259C13.8694 18.0575 13.7621 18.2027 13.6734 18.3566C13.673 18.3561 13.673 18.3557 13.6725 18.3557C13.6707 18.3589 13.6698 18.3625 13.668 18.3662C13.572 18.5352 13.5021 18.7147 13.4578 18.8987C13.4551 18.9092 13.4523 18.9193 13.45 18.9298C13.4295 19.022 13.4144 19.1157 13.4066 19.2097C13.4066 19.2116 13.4066 19.2134 13.4062 19.2157C13.3989 19.3066 13.3984 19.3975 13.4034 19.4883C13.4039 19.4952 13.403 19.502 13.4034 19.5089C13.4034 19.5093 13.4044 19.5098 13.4044 19.5103C13.435 19.9921 13.6319 20.4657 14.001 20.8343C14.4021 21.2357 14.9288 21.4367 15.4551 21.4367C15.5068 21.4367 15.5584 21.433 15.61 21.4294L15.6105 21.4294C15.7082 21.4221 15.8055 21.4074 15.9019 21.386C15.9047 21.3855 15.9069 21.3851 15.9101 21.3842C16.102 21.3408 16.2889 21.2695 16.4648 21.1704C16.4661 21.1695 16.467 21.1686 16.4689 21.1681C16.6265 21.0786 16.7754 20.969 16.9093 20.8347C17.4561 20.2885 17.6297 19.5107 17.4324 18.8165C18.6613 20.3958 19.0857 21.5846 19.0619 22.008C19.056 22.008 19.0505 22.0085 19.0441 22.0085C18.664 22.0085 18.0518 21.7861 17.3113 21.3609C17.0326 21.6221 16.7087 21.818 16.3569 21.9418C17.4168 22.6168 18.3707 23 19.0436 23C19.342 23 19.5836 22.9228 19.7572 22.7662L19.76 22.7703C19.76 22.7703 20.2584 22.272 20.5978 21.9327C20.9368 21.5938 20.8482 20.9498 20.8322 20.4703C20.8148 19.9679 20.7267 19.3477 21.0661 19.0088L24.9274 15.1482C26.5103 13.5648 26.5108 10.9981 24.9274 9.41555Z" fill="#737373"/>
<circle id="Ellipse 15" cx="6.61481" cy="22.5" r="6" fill="#FF1930" stroke="white"/>
</g>
</svg>
