<svg width="34" height="37" viewBox="0 0 34 37" fill="none" xmlns="http://www.w3.org/2000/svg">
<path id="Pragas" d="M33.9253 21.7604C33.5729 21.2802 33.0719 20.9242 32.668 20.4884C32.4118 20.2695 32.1883 19.9209 31.8041 19.928C30.5266 19.9121 29.2483 19.9373 27.9709 19.9176C27.7476 17.9252 27.2269 15.9643 26.3926 14.1284C28.2408 13.6713 30.0949 13.2424 31.9431 12.785C32.3532 12.717 32.5614 12.3045 32.521 11.9326C32.4897 10.5078 32.5577 9.0786 32.4929 7.6557C32.3583 6.95274 31.202 6.94781 31.0599 7.6483C31.0098 8.94349 31.0434 10.2423 31.0377 11.5394C29.2591 11.9625 27.4852 12.3969 25.7069 12.8239C24.7926 11.262 23.5945 9.84021 22.0896 8.77276C22.2801 7.72476 22.1527 6.6162 21.6465 5.66604C21.2401 5.02365 21.4915 4.20695 21.8459 3.59718C22.6433 2.32829 24.1468 1.53352 25.6682 1.43376C25.9614 1.41787 26.307 1.38224 26.475 1.11202C26.8262 0.681201 26.4492 -0.0376521 25.877 0.00153815C23.4077 0.0218184 20.8949 1.53215 20.1137 3.84739C18.3431 2.52342 15.6694 2.50368 13.9062 3.85095C13.0769 1.50776 10.503 -0.0669763 7.9714 0.0133226C7.23314 0.125138 7.21779 1.26741 7.9569 1.38854C9.64841 1.43979 11.3911 2.24799 12.226 3.71201C12.5215 4.29575 12.7797 5.05736 12.3685 5.64411C11.8438 6.59975 11.7386 7.71873 11.9124 8.77385C10.4077 9.83802 9.21472 11.2634 8.29929 12.8217C6.52446 12.3944 4.74878 11.9658 2.97224 11.5405C2.94807 10.2436 3.0166 8.94459 2.95006 7.64939C2.80957 6.95027 1.65925 6.94671 1.51506 7.64775C1.46871 9.13314 1.49459 10.621 1.50028 12.1083C1.48009 12.4868 1.8313 12.7702 2.19445 12.8233C4.00398 13.2503 5.80782 13.6935 7.61735 14.1224C6.7733 15.9544 6.2597 17.9227 6.03874 19.9135C4.75959 19.9423 3.47759 19.9061 2.19815 19.9275C1.81224 19.922 1.58872 20.2659 1.33221 20.486C0.931512 20.9075 0.46228 21.2692 0.100261 21.7225C-0.271142 22.2756 0.465977 23.0177 1.05835 22.7045C1.63621 22.3323 2.00961 21.7255 2.58349 21.3572C3.70054 21.3284 4.81987 21.3646 5.93664 21.3468C5.87181 22.3984 6.00518 23.4483 6.04699 24.4944C4.5918 26.8732 3.09481 29.2309 1.62853 31.604C1.41667 31.8671 1.50113 32.1981 1.61033 32.4831C2.09606 33.8493 2.54624 35.23 3.04703 36.5932C3.30923 37.2907 4.50933 37.0128 4.45018 36.278C4.04578 34.86 3.47702 33.4865 3.04334 32.0756C4.21016 30.2838 5.27745 28.4337 6.46304 26.6564C7.06308 29.0676 8.1099 31.4069 9.75135 33.3355C11.3209 35.1947 13.5405 36.6642 16.0567 36.9418C18.4276 37.2375 20.8332 36.3833 22.6339 34.9118C25.2223 32.8161 26.7793 29.7541 27.5494 26.6246C28.5982 28.2975 29.634 29.9766 30.6828 31.6492C30.79 31.8684 31.0556 32.094 30.8801 32.356C30.4447 33.6706 29.9385 34.9639 29.5449 36.2914C29.5191 37.0177 30.6808 37.2863 30.9538 36.5937C31.4841 35.142 31.9881 33.6775 32.4752 32.2115C32.5969 31.9515 32.4306 31.6988 32.3 31.4823C30.8395 29.1355 29.3749 26.7942 27.9203 24.4437C28.0588 23.417 28.1088 22.3814 28.0662 21.3482C29.1832 21.3553 30.3006 21.3408 31.4173 21.3583C31.9932 21.7176 32.3609 22.3318 32.9354 22.7037C33.5172 23.0109 34.2353 22.3227 33.9253 21.7604Z" fill="#737373"/>
</svg>
