<svg width="68" height="75" viewBox="0 0 68 75" fill="none" xmlns="http://www.w3.org/2000/svg">
<path d="M47.4726 38.9471C43.9557 41.6291 39.5694 43.2247 34.8164 43.2247H32.9086C28.1556 43.2247 23.7672 41.627 20.2503 38.9471C8.76848 40.8045 0 50.7634 0 62.7755C0 69.3743 15.1594 74.7258 33.8625 74.7258C52.5635 74.7258 67.725 69.3743 67.725 62.7755C67.725 50.7634 58.9544 40.8045 47.4726 38.9471Z" fill="#737373"/>
<path d="M33.8625 38.7616C43.8589 38.7616 51.9907 28.1451 51.9907 18.1429C51.9907 8.1407 43.8589 0 33.8625 0C23.864 0 15.7322 8.1407 15.7322 18.1429C15.7342 28.143 23.8661 38.7616 33.8625 38.7616Z" fill="#737373"/>
</svg>
