<svg width="23" height="24" viewBox="0 0 23 24" fill="none" xmlns="http://www.w3.org/2000/svg">
<g id="Search">
<g id="Iconly/Light outline/Search">
<g id="Search_2">
<path id="Vector" d="M11.2533 2.18949C16.2046 2.16982 20.2348 6.26442 20.2549 11.335C20.2644 13.728 19.3792 15.9106 17.9211 17.5506L20.8131 20.48C21.0841 20.7547 21.0865 21.2024 20.8183 21.48C20.5745 21.7323 20.1911 21.7571 19.9197 21.5532L19.8419 21.4851L16.9158 18.5205C15.3869 19.7838 13.4438 20.5434 11.3262 20.5518C6.37487 20.5715 2.34469 16.4769 2.32455 11.4062C2.30441 6.33564 6.30194 2.20915 11.2533 2.18949ZM11.2589 3.60363C7.07019 3.62027 3.68839 7.11116 3.70543 11.4008C3.72247 15.6904 7.13189 19.1543 11.3206 19.1376C15.5093 19.121 18.8911 15.6301 18.874 11.3405C18.857 7.05092 15.4476 3.587 11.2589 3.60363Z" fill="#666666"/>
</g>
</g>
</g>
</svg>
